<svg xmlns="http://www.w3.org/2000/svg" width="900" height="1200" viewBox="0 0 900 1200" role="img" aria-labelledby="title desc">
  <title id="title">Groom portrait placeholder</title>
  <desc id="desc">Replace this local free placeholder with the groom's individual photo.</desc>
  <defs>
    <linearGradient id="bg" x1="0" y1="0" x2="1" y2="1">
      <stop offset="0" stop-color="#FFF8EA"/>
      <stop offset="0.52" stop-color="#F8EED8"/>
      <stop offset="1" stop-color="#123C2F"/>
    </linearGradient>
    <radialGradient id="glow" cx="50%" cy="28%" r="62%">
      <stop offset="0" stop-color="#C9A24D" stop-opacity="0.38"/>
      <stop offset="1" stop-color="#C9A24D" stop-opacity="0"/>
    </radialGradient>
  </defs>
  <rect width="900" height="1200" fill="url(#bg)"/>
  <rect width="900" height="1200" fill="url(#glow)"/>
  <g opacity="0.22" fill="none" stroke="#A67C2D" stroke-width="2">
    <path d="M450 110L760 420L450 730L140 420L450 110Z"/>
    <path d="M450 210L660 420L450 630L240 420L450 210Z"/>
    <path d="M140 420H760M450 110V730"/>
  </g>
  <g transform="translate(0 60)">
    <circle cx="450" cy="360" r="138" fill="#E3CFA4"/>
    <path d="M304 338C326 211 421 168 520 212C594 245 617 316 587 420C547 360 480 345 421 355C374 363 337 358 304 338Z" fill="#263A2F"/>
    <path d="M210 1020C238 750 321 598 450 598C579 598 662 750 690 1020H210Z" fill="#123C2F"/>
    <path d="M335 650L450 792L565 650C523 626 378 626 335 650Z" fill="#FFF8EA"/>
    <path d="M450 792L389 665H511L450 792Z" fill="#C9A24D" opacity="0.85"/>
  </g>
  <text x="450" y="1110" text-anchor="middle" fill="#FFF8EA" font-family="Cinzel, serif" font-size="30" letter-spacing="8">GROOM PHOTO</text>
</svg>
